<svg width="192" height="192" viewBox="0 0 512 512" xmlns="http://www.w3.org/2000/svg">
  <rect width="512" height="512" fill="#F8F9FA"/>

  <!-- Blocco blu navy top-left - Produttività/Task -->
  <path d="M 142,101 H 236 A 8,8 0 0 1 244,109 V 185 A 8,8 0 0 1 236,193 H 110 A 8,8 0 0 1 102,185 V 141 A 40,40 0 0 1 142,101 Z" fill="#2E5EAA"/>
  
  <!-- Blocco viola top-right - Studio/Creatività -->
  <path d="M 264,101 H 370 A 40,40 0 0 1 410,141 V 185 A 8,8 0 0 1 402,193 H 264 A 8,8 0 0 1 256,185 V 109 A 8,8 0 0 1 264,101 Z" fill="#7C3AED"/>

  <!-- Blocco verde smeraldo bottom-left - Finanza -->
  <path d="M 110,205 H 186 A 8,8 0 0 1 194,213 V 403 A 8,8 0 0 1 186,411 H 142 A 40,40 0 0 1 102,371 V 213 A 8,8 0 0 1 110,205 Z" fill="#059669"/>

  <!-- Blocco arancione wellness middle-center - Fitness/Energia -->
  <rect x="206" y="205" width="96" height="97" rx="8" ry="8" fill="#F59E0B"/>
  
  <!-- Blocco turchese middle-right - Salute Mentale -->
  <rect x="314" y="205" width="96" height="97" rx="8" ry="8" fill="#14B8A6"/>
  
  <!-- Blocco rosso corallo bottom-center - Salute/Cuore -->
  <rect x="206" y="314" width="96" height="97" rx="8" ry="8" fill="#EF4444"/>
  
  <!-- Blocco indigo bottom-right - Social/Network -->
  <path d="M 322,314 H 402 A 8,8 0 0 1 410,322 V 371 A 40,40 0 0 1 370,411 H 322 A 8,8 0 0 1 314,403 V 322 A 8,8 0 0 1 322,314 Z" fill="#6366F1"/>

</svg>
